%FSLAX25Y25*%
%MOIN*%
G70*
G01*
G75*
G04 Layer_Color=16711935*
%ADD10R,0.07087X0.08661*%
%ADD11R,0.05906X0.02953*%
%ADD12R,0.11811X0.08268*%
%ADD13R,0.06693X0.02362*%
%ADD14R,0.10630X0.03937*%
%ADD15R,0.06299X0.08661*%
%ADD16R,0.03543X0.03740*%
%ADD17O,0.06693X0.01693*%
%ADD18R,0.01969X0.02165*%
%ADD19R,0.03000X0.03543*%
%ADD20R,0.16535X0.05512*%
%ADD21R,0.03937X0.05709*%
%ADD22R,0.04331X0.02362*%
%ADD23R,0.05315X0.07087*%
%ADD24R,0.02803X0.03600*%
%ADD25R,0.02804X0.03600*%
%ADD26R,0.02165X0.01969*%
%ADD27O,0.01378X0.06693*%
%ADD28R,0.04724X0.04331*%
%ADD29C,0.03000*%
%ADD30C,0.01500*%
%ADD31C,0.00800*%
%ADD32C,0.01000*%
%ADD33C,0.01200*%
%ADD34C,0.02000*%
%ADD35R,0.05118X0.05118*%
%ADD36C,0.05118*%
%ADD37R,0.05906X0.05906*%
%ADD38C,0.05906*%
%ADD39C,0.01969*%
%ADD40C,0.01181*%
%ADD41C,0.00984*%
%ADD42C,0.02362*%
%ADD43C,0.00500*%
%ADD44C,0.00787*%
%ADD45R,0.07887X0.09461*%
%ADD46R,0.06706X0.03753*%
%ADD47R,0.12611X0.09068*%
%ADD48R,0.07493X0.03162*%
%ADD49R,0.11430X0.04737*%
%ADD50R,0.07099X0.09461*%
%ADD51R,0.04343X0.04540*%
%ADD52O,0.07093X0.02093*%
%ADD53R,0.02769X0.02965*%
%ADD54R,0.03800X0.04343*%
%ADD55R,0.17335X0.06312*%
%ADD56R,0.04737X0.06509*%
%ADD57R,0.05131X0.03162*%
%ADD58R,0.06115X0.07887*%
%ADD59R,0.03603X0.04400*%
%ADD60R,0.03604X0.04400*%
%ADD61R,0.02965X0.02769*%
%ADD62O,0.02178X0.07493*%
%ADD63R,0.05524X0.05131*%
%ADD64R,0.05918X0.05918*%
%ADD65C,0.05918*%
%ADD66R,0.06706X0.06706*%
%ADD67C,0.06706*%
D43*
X0Y97123D02*
G03*
X0Y97373I0J125D01*
G01*
D02*
G03*
X0Y97123I0J-125D01*
G01*
Y13659D02*
G03*
X0Y13909I0J125D01*
G01*
D02*
G03*
X0Y13659I0J-125D01*
G01*
X93347Y125431D02*
G03*
X93347Y125681I0J125D01*
G01*
D02*
G03*
X93347Y125431I0J-125D01*
G01*
X1969Y99092D02*
G03*
X1969Y99342I0J125D01*
G01*
D02*
G03*
X1969Y99092I0J-125D01*
G01*
X95315Y127399D02*
G03*
X95315Y127649I0J125D01*
G01*
D02*
G03*
X95315Y127399I0J-125D01*
G01*
X115197D02*
G03*
X115197Y127649I0J125D01*
G01*
D02*
G03*
X115197Y127399I0J-125D01*
G01*
X117166Y144407D02*
G03*
X117166Y144657I0J125D01*
G01*
D02*
G03*
X117166Y144407I0J-125D01*
G01*
Y129368D02*
G03*
X117166Y129618I0J125D01*
G01*
D02*
G03*
X117166Y129368I0J-125D01*
G01*
X119134Y146376D02*
G03*
X119134Y146625I0J125D01*
G01*
D02*
G03*
X119134Y146376I0J-125D01*
G01*
X179134D02*
G03*
X179134Y146625I0J125D01*
G01*
D02*
G03*
X179134Y146376I0J-125D01*
G01*
X181103Y144407D02*
G03*
X181103Y144657I0J125D01*
G01*
D02*
G03*
X181103Y144407I0J-125D01*
G01*
X0Y97123D02*
G03*
X0Y97373I0J125D01*
G01*
D02*
G03*
X0Y97123I0J-125D01*
G01*
Y1848D02*
G03*
X0Y2098I0J125D01*
G01*
D02*
G03*
X0Y1848I0J-125D01*
G01*
X1969Y99092D02*
G03*
X1969Y99342I0J125D01*
G01*
D02*
G03*
X1969Y99092I0J-125D01*
G01*
X93347Y125431D02*
G03*
X93347Y125681I0J125D01*
G01*
D02*
G03*
X93347Y125431I0J-125D01*
G01*
X95315Y127399D02*
G03*
X95315Y127649I0J125D01*
G01*
D02*
G03*
X95315Y127399I0J-125D01*
G01*
X115197D02*
G03*
X115197Y127649I0J125D01*
G01*
D02*
G03*
X115197Y127399I0J-125D01*
G01*
X117166Y144407D02*
G03*
X117166Y144657I0J125D01*
G01*
D02*
G03*
X117166Y144407I0J-125D01*
G01*
Y129368D02*
G03*
X117166Y129618I0J125D01*
G01*
D02*
G03*
X117166Y129368I0J-125D01*
G01*
X119134Y146376D02*
G03*
X119134Y146625I0J125D01*
G01*
D02*
G03*
X119134Y146376I0J-125D01*
G01*
X179134D02*
G03*
X179134Y146625I0J125D01*
G01*
D02*
G03*
X179134Y146376I0J-125D01*
G01*
X181103Y144407D02*
G03*
X181103Y144657I0J125D01*
G01*
D02*
G03*
X181103Y144407I0J-125D01*
G01*
X1969Y-121D02*
G03*
X1969Y129I0J125D01*
G01*
D02*
G03*
X1969Y-121I0J-125D01*
G01*
Y99217D02*
G03*
X0Y97249I0J-1969D01*
G01*
Y97123D02*
G03*
X0Y97373I0J125D01*
G01*
D02*
G03*
X0Y97123I0J-125D01*
G01*
X1969Y99092D02*
G03*
X1969Y99342I0J125D01*
G01*
D02*
G03*
X1969Y99092I0J-125D01*
G01*
X95315Y127524D02*
G03*
X93347Y125556I0J-1969D01*
G01*
Y125431D02*
G03*
X93347Y125681I0J125D01*
G01*
D02*
G03*
X93347Y125431I0J-125D01*
G01*
X95315Y127399D02*
G03*
X95315Y127649I0J125D01*
G01*
D02*
G03*
X95315Y127399I0J-125D01*
G01*
X115197Y127524D02*
G03*
X117166Y129493I0J1969D01*
G01*
Y129368D02*
G03*
X117166Y129618I0J125D01*
G01*
D02*
G03*
X117166Y129368I0J-125D01*
G01*
X115197Y127399D02*
G03*
X115197Y127649I0J125D01*
G01*
D02*
G03*
X115197Y127399I0J-125D01*
G01*
X119134Y146501D02*
G03*
X117166Y144532I0J-1969D01*
G01*
Y144407D02*
G03*
X117166Y144657I0J125D01*
G01*
D02*
G03*
X117166Y144407I0J-125D01*
G01*
X119134Y146376D02*
G03*
X119134Y146625I0J125D01*
G01*
D02*
G03*
X119134Y146376I0J-125D01*
G01*
X181103Y144532D02*
G03*
X179134Y146501I-1969J0D01*
G01*
Y146376D02*
G03*
X179134Y146625I0J125D01*
G01*
D02*
G03*
X179134Y146376I0J-125D01*
G01*
X181103Y144407D02*
G03*
X181103Y144657I0J125D01*
G01*
D02*
G03*
X181103Y144407I0J-125D01*
G01*
X1969Y99217D02*
G03*
X0Y97249I0J-1969D01*
G01*
Y97123D02*
G03*
X0Y97373I0J125D01*
G01*
D02*
G03*
X0Y97123I0J-125D01*
G01*
X1969Y99092D02*
G03*
X1969Y99342I0J125D01*
G01*
D02*
G03*
X1969Y99092I0J-125D01*
G01*
X95315Y127524D02*
G03*
X93347Y125556I0J-1969D01*
G01*
Y125431D02*
G03*
X93347Y125681I0J125D01*
G01*
D02*
G03*
X93347Y125431I0J-125D01*
G01*
X95315Y127399D02*
G03*
X95315Y127649I0J125D01*
G01*
D02*
G03*
X95315Y127399I0J-125D01*
G01*
X115197Y127524D02*
G03*
X117166Y129493I0J1969D01*
G01*
Y129368D02*
G03*
X117166Y129618I0J125D01*
G01*
D02*
G03*
X117166Y129368I0J-125D01*
G01*
X115197Y127399D02*
G03*
X115197Y127649I0J125D01*
G01*
D02*
G03*
X115197Y127399I0J-125D01*
G01*
X119134Y146501D02*
G03*
X117166Y144532I0J-1969D01*
G01*
Y144407D02*
G03*
X117166Y144657I0J125D01*
G01*
D02*
G03*
X117166Y144407I0J-125D01*
G01*
X119134Y146376D02*
G03*
X119134Y146625I0J125D01*
G01*
D02*
G03*
X119134Y146376I0J-125D01*
G01*
X181103Y144532D02*
G03*
X179134Y146501I-1969J0D01*
G01*
Y146376D02*
G03*
X179134Y146625I0J125D01*
G01*
D02*
G03*
X179134Y146376I0J-125D01*
G01*
X181103Y144407D02*
G03*
X181103Y144657I0J125D01*
G01*
D02*
G03*
X181103Y144407I0J-125D01*
G01*
X0Y1973D02*
G03*
X1969Y4I1969J-0D01*
G01*
Y-121D02*
G03*
X1969Y129I0J125D01*
G01*
D02*
G03*
X1969Y-121I0J-125D01*
G01*
X0Y1848D02*
G03*
X0Y2098I0J125D01*
G01*
D02*
G03*
X0Y1848I0J-125D01*
G01*
X93347Y103029D02*
G03*
X93347Y103279I0J125D01*
G01*
D02*
G03*
X93347Y103029I0J-125D01*
G01*
X89410Y99092D02*
G03*
X89410Y99342I0J125D01*
G01*
D02*
G03*
X89410Y99092I0J-125D01*
G01*
D02*
G03*
X89410Y99342I0J125D01*
G01*
D02*
G03*
X89410Y99092I0J-125D01*
G01*
X93347Y103029D02*
G03*
X93347Y103279I0J125D01*
G01*
D02*
G03*
X93347Y103029I0J-125D01*
G01*
X174016Y112524D02*
G03*
X174016Y106225I0J-3150D01*
G01*
D02*
G03*
X174016Y112524I0J3150D01*
G01*
Y106100D02*
G03*
X174016Y106350I0J125D01*
G01*
D02*
G03*
X174016Y106100I0J-125D01*
G01*
Y112399D02*
G03*
X174016Y112649I0J125D01*
G01*
D02*
G03*
X174016Y112399I0J-125D01*
G01*
X170079Y33863D02*
G03*
X170079Y27563I0J-3150D01*
G01*
D02*
G03*
X170079Y33863I0J3150D01*
G01*
Y27438D02*
G03*
X170079Y27688I0J125D01*
G01*
D02*
G03*
X170079Y27438I0J-125D01*
G01*
Y33737D02*
G03*
X170079Y33988I0J125D01*
G01*
D02*
G03*
X170079Y33737I0J-125D01*
G01*
X115000Y109847D02*
G03*
X115000Y105122I0J-2362D01*
G01*
D02*
G03*
X115000Y109847I0J2362D01*
G01*
Y104998D02*
G03*
X115000Y105247I0J125D01*
G01*
D02*
G03*
X115000Y104998I0J-125D01*
G01*
Y109722D02*
G03*
X115000Y109972I0J125D01*
G01*
D02*
G03*
X115000Y109722I0J-125D01*
G01*
X175197Y41540D02*
G03*
X175197Y36815I0J-2362D01*
G01*
D02*
G03*
X175197Y41540I0J2362D01*
G01*
X103189Y110241D02*
G03*
X103189Y103941I0J-3150D01*
G01*
D02*
G03*
X103189Y110241I0J3150D01*
G01*
Y103816D02*
G03*
X103189Y104066I0J125D01*
G01*
D02*
G03*
X103189Y103816I0J-125D01*
G01*
Y110116D02*
G03*
X103189Y110366I0J125D01*
G01*
D02*
G03*
X103189Y110116I0J-125D01*
G01*
X177166Y23626D02*
G03*
X181103Y27563I0J3937D01*
G01*
X177166Y23626D02*
G03*
X173229Y19689I0J-3937D01*
G01*
X89410Y99217D02*
G03*
X93347Y103154I0J3937D01*
G01*
Y103029D02*
G03*
X93347Y103279I0J125D01*
G01*
D02*
G03*
X93347Y103029I0J-125D01*
G01*
X89410Y99092D02*
G03*
X89410Y99342I0J125D01*
G01*
D02*
G03*
X89410Y99092I0J-125D01*
G01*
X103189Y110241D02*
G03*
X103189Y103941I0J-3150D01*
G01*
D02*
G03*
X103189Y110241I0J3150D01*
G01*
Y103816D02*
G03*
X103189Y104066I0J125D01*
G01*
D02*
G03*
X103189Y103816I0J-125D01*
G01*
Y110116D02*
G03*
X103189Y110366I0J125D01*
G01*
D02*
G03*
X103189Y110116I0J-125D01*
G01*
X170079Y33863D02*
G03*
X170079Y27563I0J-3150D01*
G01*
D02*
G03*
X170079Y33863I0J3150D01*
G01*
Y27438D02*
G03*
X170079Y27688I0J125D01*
G01*
D02*
G03*
X170079Y27438I0J-125D01*
G01*
Y33737D02*
G03*
X170079Y33988I0J125D01*
G01*
D02*
G03*
X170079Y33737I0J-125D01*
G01*
X174016Y112524D02*
G03*
X174016Y106225I0J-3150D01*
G01*
D02*
G03*
X174016Y112524I0J3150D01*
G01*
Y106100D02*
G03*
X174016Y106350I0J125D01*
G01*
D02*
G03*
X174016Y106100I0J-125D01*
G01*
Y112399D02*
G03*
X174016Y112649I0J125D01*
G01*
D02*
G03*
X174016Y112399I0J-125D01*
G01*
X103189Y110241D02*
G03*
X103189Y103941I0J-3150D01*
G01*
D02*
G03*
X103189Y110241I0J3150D01*
G01*
Y103816D02*
G03*
X103189Y104066I0J125D01*
G01*
D02*
G03*
X103189Y103816I0J-125D01*
G01*
Y110116D02*
G03*
X103189Y110366I0J125D01*
G01*
D02*
G03*
X103189Y110116I0J-125D01*
G01*
X105589Y105177D02*
G03*
X105589Y104927I0J-125D01*
G01*
D02*
G03*
X105589Y105177I0J125D01*
G01*
Y104864D02*
G03*
X105589Y104989I0J62D01*
G01*
Y105114D02*
G03*
X105589Y105239I0J62D01*
G01*
X100789Y109255D02*
G03*
X100789Y109005I0J-125D01*
G01*
D02*
G03*
X100789Y109255I0J125D01*
G01*
Y108943D02*
G03*
X100789Y109068I0J62D01*
G01*
Y109193D02*
G03*
X100789Y109318I0J62D01*
G01*
X115000Y109847D02*
G03*
X115000Y105122I0J-2362D01*
G01*
D02*
G03*
X115000Y109847I0J2362D01*
G01*
Y104998D02*
G03*
X115000Y105247I0J125D01*
G01*
D02*
G03*
X115000Y104998I0J-125D01*
G01*
Y109722D02*
G03*
X115000Y109972I0J125D01*
G01*
D02*
G03*
X115000Y109722I0J-125D01*
G01*
X103189Y110241D02*
G03*
X103189Y103941I0J-3150D01*
G01*
D02*
G03*
X103189Y110241I0J3150D01*
G01*
Y103816D02*
G03*
X103189Y104066I0J125D01*
G01*
D02*
G03*
X103189Y103816I0J-125D01*
G01*
Y110116D02*
G03*
X103189Y110366I0J125D01*
G01*
D02*
G03*
X103189Y110116I0J-125D01*
G01*
X174016Y112524D02*
G03*
X174016Y106225I0J-3150D01*
G01*
D02*
G03*
X174016Y112524I0J3150D01*
G01*
Y106100D02*
G03*
X174016Y106350I0J125D01*
G01*
D02*
G03*
X174016Y106100I0J-125D01*
G01*
Y112399D02*
G03*
X174016Y112649I0J125D01*
G01*
D02*
G03*
X174016Y112399I0J-125D01*
G01*
X175197Y41540D02*
G03*
X175197Y36815I0J-2362D01*
G01*
D02*
G03*
X175197Y41540I0J2362D01*
G01*
X170079Y33863D02*
G03*
X170079Y27563I0J-3150D01*
G01*
D02*
G03*
X170079Y33863I0J3150D01*
G01*
Y27438D02*
G03*
X170079Y27688I0J125D01*
G01*
D02*
G03*
X170079Y27438I0J-125D01*
G01*
Y33737D02*
G03*
X170079Y33988I0J125D01*
G01*
D02*
G03*
X170079Y33737I0J-125D01*
G01*
X89410Y99217D02*
G03*
X93347Y103154I0J3937D01*
G01*
Y103029D02*
G03*
X93347Y103279I0J125D01*
G01*
D02*
G03*
X93347Y103029I0J-125D01*
G01*
X89410Y99092D02*
G03*
X89410Y99342I0J125D01*
G01*
D02*
G03*
X89410Y99092I0J-125D01*
G01*
X177166Y23626D02*
G03*
X181103Y27563I0J3937D01*
G01*
X177166Y23626D02*
G03*
X173229Y19689I0J-3937D01*
G01*
X169292Y4D02*
G03*
X173229Y3941I-0J3937D01*
G01*
X109095Y107091D02*
G03*
X109095Y107091I-5906J0D01*
G01*
X175985Y30713D02*
G03*
X175985Y30713I-5906J0D01*
G01*
X179921Y109374D02*
G03*
X179921Y109374I-5906J0D01*
G01*
X105589Y104989D02*
G03*
X105589Y104864I0J-62D01*
G01*
Y105239D02*
G03*
X105589Y105114I0J-62D01*
G01*
X100789Y109068D02*
G03*
X100789Y108943I0J-62D01*
G01*
Y109318D02*
G03*
X100789Y109193I0J-62D01*
G01*
X0Y13784D02*
Y97249D01*
X95315Y127524D02*
X115197D01*
X117166Y129493D02*
Y144532D01*
X119134Y146501D02*
X179134D01*
X0Y1973D02*
Y97249D01*
X95315Y127524D02*
X115197D01*
X117166Y129493D02*
Y144532D01*
X119134Y146501D02*
X179134D01*
X93347Y103154D02*
Y125556D01*
X1969Y99217D02*
X89410D01*
X173229Y15752D02*
Y19689D01*
X181103Y27563D02*
Y144532D01*
X1969Y99217D02*
X89410D01*
X93347Y103154D02*
Y125556D01*
X181103Y27563D02*
Y144532D01*
X173229Y3941D02*
Y19689D01*
X1969Y4D02*
X169292D01*
M02*
