M48
;Layer_Color=9474304
;FILE_FORMAT=2:5
INCH,LZ
;TYPE=PLATED
T1F00S00C0.01181
T2F00S00C0.03150
T3F00S00C0.03543
%
T01
X0003937Y0003937
Y0011811
X0011811
Y0003937
X0019685
X0027559
X0035433
X0045276Y0015748
Y0023622
X005315
Y0015748
X00594Y00044
X00732Y00158
X00742Y0031
X00699
X00801Y00295
X0083Y00294
Y00344
X00801
X00913Y003
Y00249
X00938Y00179
X01052Y00178
X01046Y0026
X0114173Y0021654
Y0017717
X011811
Y0021654
X0124016
Y0017717
Y0025591
Y0029528
X0129921Y003937
X0137795
Y0002953
X0132874
X0142717
X0119095
Y000689
X0115157
Y0002953
X0035433Y0027559
X0027559
Y0035433
X0035433
X0003937
Y0027559
Y0019685
X0011811
X0160433Y0017717
Y0024606
Y003248
Y003937
X0153543
X0145669
X0147638Y0002953
X0160433Y0003937
Y0010827
X0170276
Y0003937
Y0017717
X0168307Y004626
X0160433
Y0054134
Y0061024
Y0069882
Y007874
Y0086614
Y0093504
Y0101378
Y0109252
X015748Y0107283
X0153543
X0149606
X0146653Y0110236
Y0117126
Y0124016
Y013189
Y0139764
X0152559Y0143701
X0160433
Y0136811
Y0129921
Y0123031
Y0116142
X0177165Y0123031
Y0129921
Y0136811
Y0143701
X0169291
X0177165Y0098425
Y0089567
Y0081693
Y0072835
Y0064961
Y0055118
Y004626
X0146653Y007874
Y0086614
X0147638Y0091535
Y0094488
X0144685
Y0091535
X0143701Y0098425
Y0101378
X0140748
Y0098425
X01332Y00837
Y00788
X0134843Y0070866
X0140748
X01412Y00596
X01443
X01444Y00525
X01413
X01412Y00495
X01444Y00494
X01163Y0053
X0113Y0056
X01095Y00404
X0094Y00492
X00911
X007Y00541
X0067Y00518
X00656Y00558
X00567
X00486Y00557
X00451Y00526
X00426Y00566
X00398Y00567
X00271Y00576
Y00526
X0027165Y0047638
X0015748Y0049213
X0011811
Y005315
Y0057087
X0007874
Y005315
Y0061024
X0011811
Y0064961
X0007874
X0011811Y007874
X0019685
X0027559
Y0086614
Y0094488
X0041339
Y0086614
Y007874
X0045276Y0067913
X0051181
Y0072835
X0057087
Y0067913
X0062992Y0070866
X0065945
Y0073819
Y0076772
X0062992
Y0073819
X0068898
X007185
X0074803Y0088583
X007874
X0087402
X00954Y00922
X00945Y00989
X00973
X01003
X0096457Y0114173
Y0119095
Y0124016
X0103347
Y0119095
X0109252
Y0124016
X0115157
Y0119095
Y0114173
X0109252
X0121063Y0143701
X0128937
X0136811
X0144685
X00824Y00964
X00677Y00966
X0055118Y0094488
Y0086614
X0057087Y0077756
X0027063Y0062663
X001378Y0086614
Y0094488
X0003937Y0043307
T02
X013Y0024
X014Y0014
X015Y0024
T03
X00775Y00062
X00875
X00975
X01075
M30
