%FSLAX25Y25*%
%MOIN*%
G70*
G01*
G75*
%ADD10C,0.00500*%
%ADD11C,0.00667*%
D10*
X128425Y24000D02*
X131575D01*
X130000Y22425D02*
Y25575D01*
X148425Y24000D02*
X151575D01*
X150000Y22425D02*
Y25575D01*
X138425Y14000D02*
X141575D01*
X140000Y12425D02*
Y15575D01*
X75728Y6200D02*
X79272D01*
X77500Y4428D02*
Y7972D01*
X85728Y6200D02*
X89272D01*
X87500Y4428D02*
Y7972D01*
X95728Y6200D02*
X99272D01*
X97500Y4428D02*
Y7972D01*
X105728Y6200D02*
X109272D01*
X107500Y4428D02*
Y7972D01*
X82410Y29400D02*
X83591D01*
X83000Y28809D02*
Y29991D01*
X26509Y57600D02*
X27691D01*
X27100Y57010D02*
Y58191D01*
X26509Y52600D02*
X27691D01*
X27100Y52009D02*
Y53190D01*
X26472Y62663D02*
X27653D01*
X27063Y62072D02*
Y63253D01*
X66409Y51800D02*
X67590D01*
X67000Y51209D02*
Y52390D01*
X69410Y54100D02*
X70591D01*
X70000Y53509D02*
Y54690D01*
X132609Y83700D02*
X133791D01*
X133200Y83109D02*
Y84290D01*
X132609Y78800D02*
X133791D01*
X133200Y78210D02*
Y79391D01*
X44509Y52600D02*
X45691D01*
X45100Y52009D02*
Y53190D01*
X90710Y30000D02*
X91891D01*
X91300Y29409D02*
Y30591D01*
X82410Y34400D02*
X83591D01*
X83000Y33809D02*
Y34991D01*
X79510Y34400D02*
X80690D01*
X80100Y33809D02*
Y34991D01*
X79510Y29500D02*
X80690D01*
X80100Y28909D02*
Y30091D01*
X90710Y24900D02*
X91891D01*
X91300Y24309D02*
Y25490D01*
X39209Y56700D02*
X40391D01*
X39800Y56109D02*
Y57291D01*
X42009Y56600D02*
X43191D01*
X42600Y56010D02*
Y57191D01*
X11220Y78740D02*
X12402D01*
X11811Y78150D02*
Y79331D01*
X19094Y78740D02*
X20276D01*
X19685Y78150D02*
Y79331D01*
X26969Y78740D02*
X28150D01*
X27559Y78150D02*
Y79331D01*
X26969Y86614D02*
X28150D01*
X27559Y86024D02*
Y87205D01*
X26969Y94488D02*
X28150D01*
X27559Y93898D02*
Y95079D01*
X40748Y78740D02*
X41929D01*
X41339Y78150D02*
Y79331D01*
X40748Y86614D02*
X41929D01*
X41339Y86024D02*
Y87205D01*
X40748Y94488D02*
X41929D01*
X41339Y93898D02*
Y95079D01*
X54528Y94488D02*
X55709D01*
X55118Y93898D02*
Y95079D01*
X54528Y86614D02*
X55709D01*
X55118Y86024D02*
Y87205D01*
X65354Y76772D02*
X66535D01*
X65945Y76181D02*
Y77362D01*
X62402Y73819D02*
X63583D01*
X62992Y73228D02*
Y74410D01*
X65354Y73819D02*
X66535D01*
X65945Y73228D02*
Y74410D01*
X62402Y76772D02*
X63583D01*
X62992Y76181D02*
Y77362D01*
X68307Y73819D02*
X69488D01*
X68898Y73228D02*
Y74410D01*
X71260Y73819D02*
X72441D01*
X71850Y73228D02*
Y74410D01*
X65354Y70866D02*
X66535D01*
X65945Y70276D02*
Y71457D01*
X62402Y70866D02*
X63583D01*
X62992Y70276D02*
Y71457D01*
X44685Y67913D02*
X45866D01*
X45276Y67323D02*
Y68504D01*
X50591Y67913D02*
X51772D01*
X51181Y67323D02*
Y68504D01*
X56496Y67913D02*
X57677D01*
X57087Y67323D02*
Y68504D01*
X56496Y72835D02*
X57677D01*
X57087Y72244D02*
Y73425D01*
X50591Y72835D02*
X51772D01*
X51181Y72244D02*
Y73425D01*
X56496Y77756D02*
X57677D01*
X57087Y77165D02*
Y78347D01*
X78150Y88583D02*
X79331D01*
X78740Y87992D02*
Y89173D01*
X74213Y88583D02*
X75394D01*
X74803Y87992D02*
Y89173D01*
X86811Y88583D02*
X87992D01*
X87402Y87992D02*
Y89173D01*
X67110Y96600D02*
X68291D01*
X67700Y96009D02*
Y97190D01*
X81810Y96400D02*
X82990D01*
X82400Y95810D02*
Y96991D01*
X99709Y98900D02*
X100891D01*
X100300Y98309D02*
Y99490D01*
X95866Y114173D02*
X97047D01*
X96457Y113583D02*
Y114764D01*
X95866Y124016D02*
X97047D01*
X96457Y123425D02*
Y124606D01*
X95866Y119095D02*
X97047D01*
X96457Y118504D02*
Y119685D01*
X102756Y124016D02*
X103937D01*
X103347Y123425D02*
Y124606D01*
X108661Y124016D02*
X109843D01*
X109252Y123425D02*
Y124606D01*
X114567Y124016D02*
X115748D01*
X115157Y123425D02*
Y124606D01*
X102756Y119095D02*
X103937D01*
X103347Y118504D02*
Y119685D01*
X108661Y119095D02*
X109843D01*
X109252Y118504D02*
Y119685D01*
X114567Y119095D02*
X115748D01*
X115157Y118504D02*
Y119685D01*
X108661Y114173D02*
X109843D01*
X109252Y113583D02*
Y114764D01*
X114567Y114173D02*
X115748D01*
X115157Y113583D02*
Y114764D01*
X120472Y143701D02*
X121653D01*
X121063Y143110D02*
Y144291D01*
X128347Y143701D02*
X129528D01*
X128937Y143110D02*
Y144291D01*
X136221Y143701D02*
X137402D01*
X136811Y143110D02*
Y144291D01*
X144095Y143701D02*
X145276D01*
X144685Y143110D02*
Y144291D01*
X151969Y143701D02*
X153150D01*
X152559Y143110D02*
Y144291D01*
X159843Y143701D02*
X161024D01*
X160433Y143110D02*
Y144291D01*
X168701Y143701D02*
X169882D01*
X169291Y143110D02*
Y144291D01*
X176575Y143701D02*
X177756D01*
X177165Y143110D02*
Y144291D01*
X176575Y136811D02*
X177756D01*
X177165Y136221D02*
Y137402D01*
X176575Y129921D02*
X177756D01*
X177165Y129331D02*
Y130512D01*
X176575Y123031D02*
X177756D01*
X177165Y122441D02*
Y123622D01*
X159843Y136811D02*
X161024D01*
X160433Y136221D02*
Y137402D01*
X159843Y129921D02*
X161024D01*
X160433Y129331D02*
Y130512D01*
X159843Y123031D02*
X161024D01*
X160433Y122441D02*
Y123622D01*
X146063Y139764D02*
X147244D01*
X146653Y139173D02*
Y140354D01*
X146063Y131890D02*
X147244D01*
X146653Y131299D02*
Y132480D01*
X146063Y124016D02*
X147244D01*
X146653Y123425D02*
Y124606D01*
X146063Y117126D02*
X147244D01*
X146653Y116535D02*
Y117717D01*
X146063Y110236D02*
X147244D01*
X146653Y109646D02*
Y110827D01*
X149016Y107283D02*
X150197D01*
X149606Y106693D02*
Y107874D01*
X152953Y107283D02*
X154134D01*
X153543Y106693D02*
Y107874D01*
X156890Y107283D02*
X158071D01*
X157480Y106693D02*
Y107874D01*
X176575Y98425D02*
X177756D01*
X177165Y97835D02*
Y99016D01*
X176575Y89567D02*
X177756D01*
X177165Y88976D02*
Y90158D01*
X176575Y81693D02*
X177756D01*
X177165Y81102D02*
Y82284D01*
X176575Y72835D02*
X177756D01*
X177165Y72244D02*
Y73425D01*
X176575Y64961D02*
X177756D01*
X177165Y64370D02*
Y65551D01*
X176575Y55118D02*
X177756D01*
X177165Y54528D02*
Y55709D01*
X176575Y46260D02*
X177756D01*
X177165Y45669D02*
Y46850D01*
X167717Y46260D02*
X168898D01*
X168307Y45669D02*
Y46850D01*
X159843Y46260D02*
X161024D01*
X160433Y45669D02*
Y46850D01*
X159843Y39370D02*
X161024D01*
X160433Y38780D02*
Y39961D01*
X159843Y32480D02*
X161024D01*
X160433Y31890D02*
Y33071D01*
X159843Y24606D02*
X161024D01*
X160433Y24016D02*
Y25197D01*
X159843Y17717D02*
X161024D01*
X160433Y17126D02*
Y18307D01*
X169685Y17717D02*
X170866D01*
X170276Y17126D02*
Y18307D01*
X169685Y10827D02*
X170866D01*
X170276Y10236D02*
Y11417D01*
X169685Y3937D02*
X170866D01*
X170276Y3347D02*
Y4528D01*
X159843Y3937D02*
X161024D01*
X160433Y3347D02*
Y4528D01*
X159843Y10827D02*
X161024D01*
X160433Y10236D02*
Y11417D01*
X140157Y101378D02*
X141339D01*
X140748Y100787D02*
Y101969D01*
X140157Y98425D02*
X141339D01*
X140748Y97835D02*
Y99016D01*
X143110Y101378D02*
X144291D01*
X143701Y100787D02*
Y101969D01*
X143110Y98425D02*
X144291D01*
X143701Y97835D02*
Y99016D01*
X144095Y94488D02*
X145276D01*
X144685Y93898D02*
Y95079D01*
X147047Y94488D02*
X148228D01*
X147638Y93898D02*
Y95079D01*
X144095Y91535D02*
X145276D01*
X144685Y90945D02*
Y92126D01*
X147047Y91535D02*
X148228D01*
X147638Y90945D02*
Y92126D01*
X26575Y47638D02*
X27756D01*
X27165Y47047D02*
Y48228D01*
X7283Y64961D02*
X8465D01*
X7874Y64370D02*
Y65551D01*
X11220Y64961D02*
X12402D01*
X11811Y64370D02*
Y65551D01*
X7283Y61024D02*
X8465D01*
X7874Y60433D02*
Y61614D01*
X11220Y61024D02*
X12402D01*
X11811Y60433D02*
Y61614D01*
X7283Y57087D02*
X8465D01*
X7874Y56496D02*
Y57677D01*
X11220Y57087D02*
X12402D01*
X11811Y56496D02*
Y57677D01*
X7283Y53150D02*
X8465D01*
X7874Y52559D02*
Y53740D01*
X11220Y53150D02*
X12402D01*
X11811Y52559D02*
Y53740D01*
X11220Y49213D02*
X12402D01*
X11811Y48622D02*
Y49803D01*
X15157Y49213D02*
X16339D01*
X15748Y48622D02*
Y49803D01*
X3347Y43307D02*
X4528D01*
X3937Y42717D02*
Y43898D01*
X3347Y35433D02*
X4528D01*
X3937Y34843D02*
Y36024D01*
X3347Y27559D02*
X4528D01*
X3937Y26969D02*
Y28150D01*
X3347Y19685D02*
X4528D01*
X3937Y19094D02*
Y20276D01*
X3347Y11811D02*
X4528D01*
X3937Y11220D02*
Y12402D01*
X3347Y3937D02*
X4528D01*
X3937Y3347D02*
Y4528D01*
X11220Y19685D02*
X12402D01*
X11811Y19094D02*
Y20276D01*
X11220Y11811D02*
X12402D01*
X11811Y11220D02*
Y12402D01*
X11220Y3937D02*
X12402D01*
X11811Y3347D02*
Y4528D01*
X19094Y3937D02*
X20276D01*
X19685Y3347D02*
Y4528D01*
X26969Y3937D02*
X28150D01*
X27559Y3347D02*
Y4528D01*
X34843Y3937D02*
X36024D01*
X35433Y3347D02*
Y4528D01*
X26969Y27559D02*
X28150D01*
X27559Y26969D02*
Y28150D01*
X34843Y27559D02*
X36024D01*
X35433Y26969D02*
Y28150D01*
X26969Y35433D02*
X28150D01*
X27559Y34843D02*
Y36024D01*
X34843Y35433D02*
X36024D01*
X35433Y34843D02*
Y36024D01*
X44685Y23622D02*
X45866D01*
X45276Y23031D02*
Y24213D01*
X52559Y23622D02*
X53740D01*
X53150Y23031D02*
Y24213D01*
X44685Y15748D02*
X45866D01*
X45276Y15157D02*
Y16339D01*
X52559Y15748D02*
X53740D01*
X53150Y15157D02*
Y16339D01*
X73610Y31000D02*
X74791D01*
X74200Y30409D02*
Y31591D01*
X58810Y4400D02*
X59991D01*
X59400Y3809D02*
Y4991D01*
X93209Y17900D02*
X94390D01*
X93800Y17310D02*
Y18490D01*
X104609Y17800D02*
X105791D01*
X105200Y17210D02*
Y18391D01*
X113583Y21654D02*
X114764D01*
X114173Y21063D02*
Y22244D01*
X117520Y21654D02*
X118701D01*
X118110Y21063D02*
Y22244D01*
X113583Y17717D02*
X114764D01*
X114173Y17126D02*
Y18307D01*
X117520Y17717D02*
X118701D01*
X118110Y17126D02*
Y18307D01*
X123425Y25591D02*
X124606D01*
X124016Y25000D02*
Y26181D01*
X123425Y21654D02*
X124606D01*
X124016Y21063D02*
Y22244D01*
X123425Y17717D02*
X124606D01*
X124016Y17126D02*
Y18307D01*
X123425Y29528D02*
X124606D01*
X124016Y28937D02*
Y30118D01*
X115709Y53000D02*
X116891D01*
X116300Y52409D02*
Y53591D01*
X108909Y40400D02*
X110091D01*
X109500Y39809D02*
Y40991D01*
X140609Y59600D02*
X141791D01*
X141200Y59009D02*
Y60190D01*
X140709Y52500D02*
X141891D01*
X141300Y51910D02*
Y53091D01*
X143809Y52500D02*
X144991D01*
X144400Y51910D02*
Y53091D01*
X140609Y49500D02*
X141791D01*
X141200Y48909D02*
Y50091D01*
X143809Y49400D02*
X144991D01*
X144400Y48809D02*
Y49991D01*
X129331Y39370D02*
X130512D01*
X129921Y38780D02*
Y39961D01*
X137205Y39370D02*
X138386D01*
X137795Y38780D02*
Y39961D01*
X145079Y39370D02*
X146260D01*
X145669Y38780D02*
Y39961D01*
X152953Y39370D02*
X154134D01*
X153543Y38780D02*
Y39961D01*
X114567Y2953D02*
X115748D01*
X115157Y2362D02*
Y3543D01*
X118504Y2953D02*
X119685D01*
X119095Y2362D02*
Y3543D01*
X132283Y2953D02*
X133465D01*
X132874Y2362D02*
Y3543D01*
X114567Y6890D02*
X115748D01*
X115157Y6299D02*
Y7480D01*
X118504Y6890D02*
X119685D01*
X119095Y6299D02*
Y7480D01*
X137205Y2953D02*
X138386D01*
X137795Y2362D02*
Y3543D01*
X142126Y2953D02*
X143307D01*
X142717Y2362D02*
Y3543D01*
X147047Y2953D02*
X148228D01*
X147638Y2362D02*
Y3543D01*
X159843Y116142D02*
X161024D01*
X160433Y115551D02*
Y116732D01*
X159843Y109252D02*
X161024D01*
X160433Y108661D02*
Y109843D01*
X159843Y101378D02*
X161024D01*
X160433Y100787D02*
Y101969D01*
X159843Y93504D02*
X161024D01*
X160433Y92913D02*
Y94095D01*
X159843Y86614D02*
X161024D01*
X160433Y86024D02*
Y87205D01*
X159843Y78740D02*
X161024D01*
X160433Y78150D02*
Y79331D01*
X159843Y69882D02*
X161024D01*
X160433Y69291D02*
Y70472D01*
X159843Y61024D02*
X161024D01*
X160433Y60433D02*
Y61614D01*
X159843Y54134D02*
X161024D01*
X160433Y53543D02*
Y54724D01*
X146063Y86614D02*
X147244D01*
X146653Y86024D02*
Y87205D01*
X146063Y78740D02*
X147244D01*
X146653Y78150D02*
Y79331D01*
X140157Y70866D02*
X141339D01*
X140748Y70276D02*
Y71457D01*
X134252Y70866D02*
X135433D01*
X134843Y70276D02*
Y71457D01*
X13189Y94488D02*
X14370D01*
X13780Y93898D02*
Y95079D01*
X13189Y86614D02*
X14370D01*
X13780Y86024D02*
Y87205D01*
X69310Y31000D02*
X70490D01*
X69900Y30409D02*
Y31591D01*
X72610Y15800D02*
X73791D01*
X73200Y15210D02*
Y16390D01*
X104009Y26000D02*
X105191D01*
X104600Y25409D02*
Y26591D01*
X93410Y49200D02*
X94591D01*
X94000Y48609D02*
Y49791D01*
X90509Y49200D02*
X91690D01*
X91100Y48609D02*
Y49791D01*
X65009Y55800D02*
X66190D01*
X65600Y55209D02*
Y56391D01*
X56109Y55800D02*
X57291D01*
X56700Y55209D02*
Y56391D01*
X48009Y55700D02*
X49191D01*
X48600Y55110D02*
Y56291D01*
X112409Y56000D02*
X113591D01*
X113000Y55409D02*
Y56590D01*
X143709Y59600D02*
X144891D01*
X144300Y59009D02*
Y60190D01*
X94810Y92200D02*
X95991D01*
X95400Y91610D02*
Y92791D01*
X96710Y98900D02*
X97891D01*
X97300Y98309D02*
Y99490D01*
X93910Y98900D02*
X95091D01*
X94500Y98309D02*
Y99490D01*
M02*
