%FSLAX25Y25*%
%MOIN*%
G70*
G01*
G75*
G04 Layer_Color=2752767*
%ADD10C,0.00500*%
%ADD11C,0.00667*%
D10*
X128000Y22000D02*
Y26000D01*
X132000D01*
Y22000D01*
X128000D01*
X148000D02*
Y26000D01*
X152000D01*
Y22000D01*
X148000D01*
X138000Y12000D02*
Y16000D01*
X142000D01*
Y12000D01*
X138000D01*
X83000Y27400D02*
X81000Y31400D01*
X85000D01*
X83000Y27400D01*
X27100Y55600D02*
X25100Y59600D01*
X29100D01*
X27100Y55600D01*
Y50600D02*
X25100Y54600D01*
X29100D01*
X27100Y50600D01*
X27063Y60663D02*
X25063Y64663D01*
X29063D01*
X27063Y60663D01*
X67000Y49800D02*
X65000Y53800D01*
X69000D01*
X67000Y49800D01*
X70000Y52100D02*
X68000Y56100D01*
X72000D01*
X70000Y52100D01*
X133200Y81700D02*
X131200Y85700D01*
X135200D01*
X133200Y81700D01*
Y76800D02*
X131200Y80800D01*
X135200D01*
X133200Y76800D01*
X45100Y50600D02*
X43100Y54600D01*
X47100D01*
X45100Y50600D01*
X91300Y28000D02*
X89300Y32000D01*
X93300D01*
X91300Y28000D01*
X83000Y32400D02*
X81000Y36400D01*
X85000D01*
X83000Y32400D01*
X80100D02*
X78100Y36400D01*
X82100D01*
X80100Y32400D01*
Y27500D02*
X78100Y31500D01*
X82100D01*
X80100Y27500D01*
X91300Y22900D02*
X89300Y26900D01*
X93300D01*
X91300Y22900D01*
X39800Y54700D02*
X37800Y58700D01*
X41800D01*
X39800Y54700D01*
X42600Y54600D02*
X40600Y58600D01*
X44600D01*
X42600Y54600D01*
X11811Y76740D02*
X9811Y80740D01*
X13811D01*
X11811Y76740D01*
X19685D02*
X17685Y80740D01*
X21685D01*
X19685Y76740D01*
X27559D02*
X25559Y80740D01*
X29559D01*
X27559Y76740D01*
Y84614D02*
X25559Y88614D01*
X29559D01*
X27559Y84614D01*
Y92488D02*
X25559Y96488D01*
X29559D01*
X27559Y92488D01*
X41339Y76740D02*
X39339Y80740D01*
X43339D01*
X41339Y76740D01*
Y84614D02*
X39339Y88614D01*
X43339D01*
X41339Y84614D01*
Y92488D02*
X39339Y96488D01*
X43339D01*
X41339Y92488D01*
X55118D02*
X53118Y96488D01*
X57118D01*
X55118Y92488D01*
Y84614D02*
X53118Y88614D01*
X57118D01*
X55118Y84614D01*
X65945Y74772D02*
X63945Y78772D01*
X67945D01*
X65945Y74772D01*
X62992Y71819D02*
X60992Y75819D01*
X64992D01*
X62992Y71819D01*
X65945D02*
X63945Y75819D01*
X67945D01*
X65945Y71819D01*
X62992Y74772D02*
X60992Y78772D01*
X64992D01*
X62992Y74772D01*
X68898Y71819D02*
X66898Y75819D01*
X70898D01*
X68898Y71819D01*
X71850D02*
X69850Y75819D01*
X73850D01*
X71850Y71819D01*
X65945Y68866D02*
X63945Y72866D01*
X67945D01*
X65945Y68866D01*
X62992D02*
X60992Y72866D01*
X64992D01*
X62992Y68866D01*
X45276Y65913D02*
X43276Y69913D01*
X47276D01*
X45276Y65913D01*
X51181D02*
X49181Y69913D01*
X53181D01*
X51181Y65913D01*
X57087D02*
X55087Y69913D01*
X59087D01*
X57087Y65913D01*
Y70835D02*
X55087Y74835D01*
X59087D01*
X57087Y70835D01*
X51181D02*
X49181Y74835D01*
X53181D01*
X51181Y70835D01*
X57087Y75756D02*
X55087Y79756D01*
X59087D01*
X57087Y75756D01*
X78740Y86583D02*
X76740Y90583D01*
X80740D01*
X78740Y86583D01*
X74803D02*
X72803Y90583D01*
X76803D01*
X74803Y86583D01*
X87402D02*
X85402Y90583D01*
X89402D01*
X87402Y86583D01*
X67700Y94600D02*
X65700Y98600D01*
X69700D01*
X67700Y94600D01*
X82400Y94400D02*
X80400Y98400D01*
X84400D01*
X82400Y94400D01*
X100300Y96900D02*
X98300Y100900D01*
X102300D01*
X100300Y96900D01*
X96457Y112173D02*
X94457Y116173D01*
X98457D01*
X96457Y112173D01*
Y122016D02*
X94457Y126016D01*
X98457D01*
X96457Y122016D01*
Y117095D02*
X94457Y121095D01*
X98457D01*
X96457Y117095D01*
X103347Y122016D02*
X101347Y126016D01*
X105347D01*
X103347Y122016D01*
X109252D02*
X107252Y126016D01*
X111252D01*
X109252Y122016D01*
X115157D02*
X113157Y126016D01*
X117157D01*
X115157Y122016D01*
X103347Y117095D02*
X101347Y121095D01*
X105347D01*
X103347Y117095D01*
X109252D02*
X107252Y121095D01*
X111252D01*
X109252Y117095D01*
X115157D02*
X113157Y121095D01*
X117157D01*
X115157Y117095D01*
X109252Y112173D02*
X107252Y116173D01*
X111252D01*
X109252Y112173D01*
X115157D02*
X113157Y116173D01*
X117157D01*
X115157Y112173D01*
X121063Y141701D02*
X119063Y145701D01*
X123063D01*
X121063Y141701D01*
X128937D02*
X126937Y145701D01*
X130937D01*
X128937Y141701D01*
X136811D02*
X134811Y145701D01*
X138811D01*
X136811Y141701D01*
X144685D02*
X142685Y145701D01*
X146685D01*
X144685Y141701D01*
X152559D02*
X150559Y145701D01*
X154559D01*
X152559Y141701D01*
X160433D02*
X158433Y145701D01*
X162433D01*
X160433Y141701D01*
X169291D02*
X167291Y145701D01*
X171291D01*
X169291Y141701D01*
X177165D02*
X175165Y145701D01*
X179165D01*
X177165Y141701D01*
Y134811D02*
X175165Y138811D01*
X179165D01*
X177165Y134811D01*
Y127921D02*
X175165Y131921D01*
X179165D01*
X177165Y127921D01*
Y121031D02*
X175165Y125031D01*
X179165D01*
X177165Y121031D01*
X160433Y134811D02*
X158433Y138811D01*
X162433D01*
X160433Y134811D01*
Y127921D02*
X158433Y131921D01*
X162433D01*
X160433Y127921D01*
Y121031D02*
X158433Y125031D01*
X162433D01*
X160433Y121031D01*
X146653Y137764D02*
X144653Y141764D01*
X148653D01*
X146653Y137764D01*
Y129890D02*
X144653Y133890D01*
X148653D01*
X146653Y129890D01*
Y122016D02*
X144653Y126016D01*
X148653D01*
X146653Y122016D01*
Y115126D02*
X144653Y119126D01*
X148653D01*
X146653Y115126D01*
Y108236D02*
X144653Y112236D01*
X148653D01*
X146653Y108236D01*
X149606Y105283D02*
X147606Y109283D01*
X151606D01*
X149606Y105283D01*
X153543D02*
X151543Y109283D01*
X155543D01*
X153543Y105283D01*
X157480D02*
X155480Y109283D01*
X159480D01*
X157480Y105283D01*
X177165Y96425D02*
X175165Y100425D01*
X179165D01*
X177165Y96425D01*
Y87567D02*
X175165Y91567D01*
X179165D01*
X177165Y87567D01*
Y79693D02*
X175165Y83693D01*
X179165D01*
X177165Y79693D01*
Y70835D02*
X175165Y74835D01*
X179165D01*
X177165Y70835D01*
Y62961D02*
X175165Y66961D01*
X179165D01*
X177165Y62961D01*
Y53118D02*
X175165Y57118D01*
X179165D01*
X177165Y53118D01*
Y44260D02*
X175165Y48260D01*
X179165D01*
X177165Y44260D01*
X168307D02*
X166307Y48260D01*
X170307D01*
X168307Y44260D01*
X160433D02*
X158433Y48260D01*
X162433D01*
X160433Y44260D01*
Y37370D02*
X158433Y41370D01*
X162433D01*
X160433Y37370D01*
Y30480D02*
X158433Y34480D01*
X162433D01*
X160433Y30480D01*
Y22606D02*
X158433Y26606D01*
X162433D01*
X160433Y22606D01*
Y15717D02*
X158433Y19716D01*
X162433D01*
X160433Y15717D01*
X170276D02*
X168276Y19716D01*
X172276D01*
X170276Y15717D01*
Y8827D02*
X168276Y12827D01*
X172276D01*
X170276Y8827D01*
Y1937D02*
X168276Y5937D01*
X172276D01*
X170276Y1937D01*
X160433D02*
X158433Y5937D01*
X162433D01*
X160433Y1937D01*
Y8827D02*
X158433Y12827D01*
X162433D01*
X160433Y8827D01*
X140748Y99378D02*
X138748Y103378D01*
X142748D01*
X140748Y99378D01*
Y96425D02*
X138748Y100425D01*
X142748D01*
X140748Y96425D01*
X143701Y99378D02*
X141701Y103378D01*
X145701D01*
X143701Y99378D01*
Y96425D02*
X141701Y100425D01*
X145701D01*
X143701Y96425D01*
X144685Y92488D02*
X142685Y96488D01*
X146685D01*
X144685Y92488D01*
X147638D02*
X145638Y96488D01*
X149638D01*
X147638Y92488D01*
X144685Y89535D02*
X142685Y93535D01*
X146685D01*
X144685Y89535D01*
X147638D02*
X145638Y93535D01*
X149638D01*
X147638Y89535D01*
X27165Y45638D02*
X25165Y49638D01*
X29165D01*
X27165Y45638D01*
X7874Y62961D02*
X5874Y66961D01*
X9874D01*
X7874Y62961D01*
X11811D02*
X9811Y66961D01*
X13811D01*
X11811Y62961D01*
X7874Y59024D02*
X5874Y63024D01*
X9874D01*
X7874Y59024D01*
X11811D02*
X9811Y63024D01*
X13811D01*
X11811Y59024D01*
X7874Y55087D02*
X5874Y59087D01*
X9874D01*
X7874Y55087D01*
X11811D02*
X9811Y59087D01*
X13811D01*
X11811Y55087D01*
X7874Y51150D02*
X5874Y55150D01*
X9874D01*
X7874Y51150D01*
X11811D02*
X9811Y55150D01*
X13811D01*
X11811Y51150D01*
Y47213D02*
X9811Y51213D01*
X13811D01*
X11811Y47213D01*
X15748D02*
X13748Y51213D01*
X17748D01*
X15748Y47213D01*
X3937Y41307D02*
X1937Y45307D01*
X5937D01*
X3937Y41307D01*
Y33433D02*
X1937Y37433D01*
X5937D01*
X3937Y33433D01*
Y25559D02*
X1937Y29559D01*
X5937D01*
X3937Y25559D01*
Y17685D02*
X1937Y21685D01*
X5937D01*
X3937Y17685D01*
Y9811D02*
X1937Y13811D01*
X5937D01*
X3937Y9811D01*
Y1937D02*
X1937Y5937D01*
X5937D01*
X3937Y1937D01*
X11811Y17685D02*
X9811Y21685D01*
X13811D01*
X11811Y17685D01*
Y9811D02*
X9811Y13811D01*
X13811D01*
X11811Y9811D01*
Y1937D02*
X9811Y5937D01*
X13811D01*
X11811Y1937D01*
X19685D02*
X17685Y5937D01*
X21685D01*
X19685Y1937D01*
X27559D02*
X25559Y5937D01*
X29559D01*
X27559Y1937D01*
X35433D02*
X33433Y5937D01*
X37433D01*
X35433Y1937D01*
X27559Y25559D02*
X25559Y29559D01*
X29559D01*
X27559Y25559D01*
X35433D02*
X33433Y29559D01*
X37433D01*
X35433Y25559D01*
X27559Y33433D02*
X25559Y37433D01*
X29559D01*
X27559Y33433D01*
X35433D02*
X33433Y37433D01*
X37433D01*
X35433Y33433D01*
X45276Y21622D02*
X43276Y25622D01*
X47276D01*
X45276Y21622D01*
X53150D02*
X51150Y25622D01*
X55150D01*
X53150Y21622D01*
X45276Y13748D02*
X43276Y17748D01*
X47276D01*
X45276Y13748D01*
X53150D02*
X51150Y17748D01*
X55150D01*
X53150Y13748D01*
X74200Y29000D02*
X72200Y33000D01*
X76200D01*
X74200Y29000D01*
X59400Y2400D02*
X57400Y6400D01*
X61400D01*
X59400Y2400D01*
X93800Y15900D02*
X91800Y19900D01*
X95800D01*
X93800Y15900D01*
X105200Y15800D02*
X103200Y19800D01*
X107200D01*
X105200Y15800D01*
X114173Y19654D02*
X112173Y23653D01*
X116173D01*
X114173Y19654D01*
X118110D02*
X116110Y23653D01*
X120110D01*
X118110Y19654D01*
X114173Y15717D02*
X112173Y19716D01*
X116173D01*
X114173Y15717D01*
X118110D02*
X116110Y19716D01*
X120110D01*
X118110Y15717D01*
X124016Y23591D02*
X122016Y27591D01*
X126016D01*
X124016Y23591D01*
Y19654D02*
X122016Y23653D01*
X126016D01*
X124016Y19654D01*
Y15717D02*
X122016Y19716D01*
X126016D01*
X124016Y15717D01*
Y27528D02*
X122016Y31528D01*
X126016D01*
X124016Y27528D01*
X116300Y51000D02*
X114300Y55000D01*
X118300D01*
X116300Y51000D01*
X109500Y38400D02*
X107500Y42400D01*
X111500D01*
X109500Y38400D01*
X141200Y57600D02*
X139200Y61600D01*
X143200D01*
X141200Y57600D01*
X141300Y50500D02*
X139300Y54500D01*
X143300D01*
X141300Y50500D01*
X144400D02*
X142400Y54500D01*
X146400D01*
X144400Y50500D01*
X141200Y47500D02*
X139200Y51500D01*
X143200D01*
X141200Y47500D01*
X144400Y47400D02*
X142400Y51400D01*
X146400D01*
X144400Y47400D01*
X129921Y37370D02*
X127921Y41370D01*
X131921D01*
X129921Y37370D01*
X137795D02*
X135795Y41370D01*
X139795D01*
X137795Y37370D01*
X145669D02*
X143669Y41370D01*
X147669D01*
X145669Y37370D01*
X153543D02*
X151543Y41370D01*
X155543D01*
X153543Y37370D01*
X115157Y953D02*
X113157Y4953D01*
X117157D01*
X115157Y953D01*
X119095D02*
X117095Y4953D01*
X121095D01*
X119095Y953D01*
X132874D02*
X130874Y4953D01*
X134874D01*
X132874Y953D01*
X115157Y4890D02*
X113157Y8890D01*
X117157D01*
X115157Y4890D01*
X119095D02*
X117095Y8890D01*
X121095D01*
X119095Y4890D01*
X137795Y953D02*
X135795Y4953D01*
X139795D01*
X137795Y953D01*
X142717D02*
X140717Y4953D01*
X144717D01*
X142717Y953D01*
X147638D02*
X145638Y4953D01*
X149638D01*
X147638Y953D01*
X160433Y114142D02*
X158433Y118142D01*
X162433D01*
X160433Y114142D01*
Y107252D02*
X158433Y111252D01*
X162433D01*
X160433Y107252D01*
Y99378D02*
X158433Y103378D01*
X162433D01*
X160433Y99378D01*
Y91504D02*
X158433Y95504D01*
X162433D01*
X160433Y91504D01*
Y84614D02*
X158433Y88614D01*
X162433D01*
X160433Y84614D01*
Y76740D02*
X158433Y80740D01*
X162433D01*
X160433Y76740D01*
Y67882D02*
X158433Y71882D01*
X162433D01*
X160433Y67882D01*
Y59024D02*
X158433Y63024D01*
X162433D01*
X160433Y59024D01*
Y52134D02*
X158433Y56134D01*
X162433D01*
X160433Y52134D01*
X146653Y84614D02*
X144653Y88614D01*
X148653D01*
X146653Y84614D01*
Y76740D02*
X144653Y80740D01*
X148653D01*
X146653Y76740D01*
X140748Y68866D02*
X138748Y72866D01*
X142748D01*
X140748Y68866D01*
X134843D02*
X132843Y72866D01*
X136843D01*
X134843Y68866D01*
X13780Y92488D02*
X11779Y96488D01*
X15779D01*
X13780Y92488D01*
Y84614D02*
X11779Y88614D01*
X15779D01*
X13780Y84614D01*
X69900Y29000D02*
X67900Y33000D01*
X71900D01*
X69900Y29000D01*
X73200Y13800D02*
X71200Y17800D01*
X75200D01*
X73200Y13800D01*
X104600Y24000D02*
X102600Y28000D01*
X106600D01*
X104600Y24000D01*
X94000Y47200D02*
X92000Y51200D01*
X96000D01*
X94000Y47200D01*
X91100D02*
X89100Y51200D01*
X93100D01*
X91100Y47200D01*
X65600Y53800D02*
X63600Y57800D01*
X67600D01*
X65600Y53800D01*
X56700D02*
X54700Y57800D01*
X58700D01*
X56700Y53800D01*
X48600Y53700D02*
X46600Y57700D01*
X50600D01*
X48600Y53700D01*
X113000Y54000D02*
X111000Y58000D01*
X115000D01*
X113000Y54000D01*
X144300Y57600D02*
X142300Y61600D01*
X146300D01*
X144300Y57600D01*
X95400Y90200D02*
X93400Y94200D01*
X97400D01*
X95400Y90200D01*
X97300Y96900D02*
X95300Y100900D01*
X99300D01*
X97300Y96900D01*
X94500D02*
X92500Y100900D01*
X96500D01*
X94500Y96900D01*
D11*
X79500Y6200D02*
G03*
X79500Y6200I-2000J0D01*
G01*
X89500D02*
G03*
X89500Y6200I-2000J0D01*
G01*
X99500D02*
G03*
X99500Y6200I-2000J0D01*
G01*
X109500D02*
G03*
X109500Y6200I-2000J0D01*
G01*
M02*
