%FSLAX25Y25*%
%MOIN*%
G70*
G01*
G75*
G04 Layer_Physical_Order=2*
G04 Layer_Color=16711680*
%ADD10R,0.07087X0.08661*%
%ADD11R,0.05906X0.02953*%
%ADD12R,0.11811X0.08268*%
%ADD13R,0.06693X0.02362*%
%ADD14R,0.10630X0.03937*%
%ADD15R,0.06299X0.08661*%
%ADD16R,0.03543X0.03740*%
%ADD17O,0.06693X0.01693*%
%ADD18R,0.01969X0.02165*%
%ADD19R,0.03000X0.03543*%
%ADD20R,0.16535X0.05512*%
%ADD21R,0.03937X0.05709*%
%ADD22R,0.04331X0.02362*%
%ADD23R,0.05315X0.07087*%
%ADD24R,0.02803X0.03600*%
%ADD25R,0.02804X0.03600*%
%ADD26R,0.02165X0.01969*%
%ADD27O,0.01378X0.06693*%
%ADD28R,0.04724X0.04331*%
%ADD29C,0.03000*%
%ADD30C,0.01500*%
%ADD31C,0.00800*%
%ADD32C,0.01000*%
%ADD33C,0.01200*%
%ADD34C,0.02000*%
%ADD35R,0.05118X0.05118*%
%ADD36C,0.05118*%
%ADD37R,0.05906X0.05906*%
%ADD38C,0.05906*%
%ADD39C,0.01969*%
G36*
X178520Y145017D02*
X179134Y144895D01*
X179370Y144941D01*
X179497Y144532D01*
X179497Y144532D01*
X179497D01*
X179619Y143918D01*
X179624Y143910D01*
Y115223D01*
X178901Y114881D01*
X178122Y115520D01*
X176845Y116203D01*
X175458Y116624D01*
X174016Y116766D01*
X172574Y116624D01*
X171187Y116203D01*
X169910Y115520D01*
X168790Y114601D01*
X167870Y113481D01*
X167188Y112203D01*
X166767Y110816D01*
X166625Y109374D01*
X166767Y107932D01*
X167188Y106546D01*
X167870Y105268D01*
X168790Y104148D01*
X169910Y103229D01*
X171187Y102546D01*
X172574Y102125D01*
X174016Y101983D01*
X175458Y102125D01*
X176845Y102546D01*
X178122Y103229D01*
X178901Y103868D01*
X179624Y103526D01*
Y40502D01*
X178840Y40346D01*
X178527Y41100D01*
X177916Y41896D01*
X177120Y42507D01*
X176192Y42892D01*
X175197Y43023D01*
X174202Y42892D01*
X173275Y42507D01*
X172478Y41896D01*
X171867Y41100D01*
X171483Y40173D01*
X171352Y39178D01*
X171428Y38601D01*
X170872Y38026D01*
X170079Y38104D01*
X168637Y37962D01*
X167251Y37541D01*
X165973Y36858D01*
X164853Y35939D01*
X163934Y34819D01*
X163251Y33541D01*
X162830Y32155D01*
X162688Y30713D01*
X162830Y29271D01*
X163251Y27885D01*
X163934Y26607D01*
X164853Y25487D01*
X165973Y24567D01*
X167251Y23884D01*
X168637Y23464D01*
X170079Y23322D01*
X171521Y23464D01*
X172552Y23776D01*
X173007Y23119D01*
X172460Y22406D01*
X171917Y21096D01*
X171732Y19689D01*
X171750D01*
Y15752D01*
Y3941D01*
X171750Y3941D01*
D01*
D01*
X171763Y3875D01*
X171587Y2990D01*
X171049Y2184D01*
X170242Y1646D01*
X169357Y1469D01*
X169292Y1483D01*
X99013D01*
X98857Y2267D01*
X99594Y2573D01*
X100462Y3238D01*
X101127Y4106D01*
X101546Y5116D01*
X101689Y6200D01*
X101546Y7284D01*
X101127Y8294D01*
X100462Y9162D01*
X99594Y9827D01*
X98584Y10246D01*
X97500Y10389D01*
X96416Y10246D01*
X95406Y9827D01*
X94538Y9162D01*
X93873Y8294D01*
X93454Y7284D01*
X93311Y6200D01*
X93454Y5116D01*
X93873Y4106D01*
X94538Y3238D01*
X95406Y2573D01*
X96143Y2267D01*
X95987Y1483D01*
X89013D01*
X88857Y2267D01*
X89594Y2573D01*
X90462Y3238D01*
X91127Y4106D01*
X91546Y5116D01*
X91689Y6200D01*
X91546Y7284D01*
X91127Y8294D01*
X90462Y9162D01*
X89594Y9827D01*
X88584Y10246D01*
X87500Y10389D01*
X86416Y10246D01*
X85406Y9827D01*
X84538Y9162D01*
X83873Y8294D01*
X83454Y7284D01*
X83311Y6200D01*
X83454Y5116D01*
X83873Y4106D01*
X84538Y3238D01*
X85406Y2573D01*
X86143Y2267D01*
X85987Y1483D01*
X81653D01*
Y2047D01*
X81653D01*
D01*
Y10353D01*
X73347D01*
Y2047D01*
D01*
D01*
D01*
X73347D01*
D01*
D01*
D01*
D01*
X72783Y1483D01*
X2591D01*
X2583Y1488D01*
X1969Y1610D01*
X1733Y1563D01*
X1606Y1973D01*
X1606Y1973D01*
X1606D01*
X1484Y2587D01*
X1478Y2595D01*
Y13161D01*
X1484Y13169D01*
X1606Y13784D01*
X1484Y14398D01*
X1478Y14406D01*
Y96626D01*
X1484Y96634D01*
X1606Y97249D01*
X1559Y97484D01*
X1969Y97611D01*
X1969Y97611D01*
Y97611D01*
X2583Y97733D01*
X2591Y97739D01*
X88787D01*
X88795Y97733D01*
X89410Y97611D01*
X90024Y97733D01*
X90151Y97818D01*
X90816Y97906D01*
X92126Y98448D01*
X93252Y99312D01*
X94115Y100437D01*
X94658Y101748D01*
X94745Y102413D01*
X94830Y102539D01*
X94952Y103154D01*
X94830Y103769D01*
X94825Y103776D01*
Y124933D01*
X94830Y124941D01*
X94952Y125556D01*
X94906Y125791D01*
X95315Y125918D01*
X95315Y125918D01*
Y125918D01*
X95930Y126040D01*
X95937Y126046D01*
X114575D01*
X114582Y126040D01*
X115197Y125918D01*
X115812Y126040D01*
X115970Y126146D01*
X116089Y126162D01*
X116921Y126506D01*
X117635Y127055D01*
X118183Y127769D01*
X118528Y128600D01*
X118543Y128720D01*
X118649Y128878D01*
X118771Y129493D01*
X118649Y130107D01*
X118644Y130115D01*
Y143910D01*
X118649Y143918D01*
X118771Y144532D01*
X118725Y144768D01*
X119134Y144895D01*
X119134Y144895D01*
Y144895D01*
X119749Y145017D01*
X119756Y145022D01*
X178512D01*
X178520Y145017D01*
D02*
G37*
%LPC*%
G36*
X91300Y32227D02*
X90448Y32057D01*
X89725Y31575D01*
X89243Y30852D01*
X89073Y30000D01*
X89243Y29148D01*
X89669Y28510D01*
Y26390D01*
X89243Y25752D01*
X89073Y24900D01*
X89243Y24048D01*
X89725Y23325D01*
X90448Y22842D01*
X91300Y22673D01*
X92152Y22842D01*
X92875Y23325D01*
X93357Y24048D01*
X93527Y24900D01*
X93357Y25752D01*
X92931Y26390D01*
Y28510D01*
X93357Y29148D01*
X93527Y30000D01*
X93357Y30852D01*
X92875Y31575D01*
X92152Y32057D01*
X91300Y32227D01*
D02*
G37*
G36*
X150000Y27792D02*
X149019Y27662D01*
X148104Y27283D01*
X147319Y26681D01*
X146716Y25896D01*
X146338Y24981D01*
X146209Y24000D01*
X146338Y23019D01*
X146716Y22104D01*
X147319Y21319D01*
X148104Y20717D01*
X149019Y20338D01*
X150000Y20209D01*
X150981Y20338D01*
X151896Y20717D01*
X152681Y21319D01*
X153284Y22104D01*
X153662Y23019D01*
X153791Y24000D01*
X153662Y24981D01*
X153284Y25896D01*
X152681Y26681D01*
X151896Y27283D01*
X150981Y27662D01*
X150000Y27792D01*
D02*
G37*
G36*
X140000Y17792D02*
X139019Y17662D01*
X138104Y17284D01*
X137319Y16681D01*
X136716Y15896D01*
X136338Y14981D01*
X136208Y14000D01*
X136338Y13019D01*
X136716Y12104D01*
X137319Y11319D01*
X138104Y10717D01*
X139019Y10338D01*
X140000Y10209D01*
X140981Y10338D01*
X141896Y10717D01*
X142681Y11319D01*
X143283Y12104D01*
X143662Y13019D01*
X143791Y14000D01*
X143662Y14981D01*
X143283Y15896D01*
X142681Y16681D01*
X141896Y17284D01*
X140981Y17662D01*
X140000Y17792D01*
D02*
G37*
G36*
X83000Y36627D02*
X82148Y36457D01*
X81550Y36058D01*
X80952Y36457D01*
X80100Y36627D01*
X79248Y36457D01*
X78525Y35975D01*
X78043Y35252D01*
X77873Y34400D01*
X78043Y33548D01*
X78469Y32910D01*
Y30990D01*
X78043Y30352D01*
X77873Y29500D01*
X78043Y28648D01*
X78525Y27925D01*
X79248Y27442D01*
X80100Y27273D01*
X80952Y27442D01*
X81475Y27792D01*
X82148Y27343D01*
X83000Y27173D01*
X83852Y27343D01*
X84575Y27825D01*
X85057Y28548D01*
X85227Y29400D01*
X85057Y30252D01*
X84631Y30890D01*
Y32910D01*
X85057Y33548D01*
X85227Y34400D01*
X85057Y35252D01*
X84575Y35975D01*
X83852Y36457D01*
X83000Y36627D01*
D02*
G37*
G36*
X103189Y114482D02*
X101747Y114340D01*
X100361Y113919D01*
X99083Y113236D01*
X97963Y112317D01*
X97044Y111197D01*
X96361Y109919D01*
X95940Y108533D01*
X95798Y107091D01*
X95940Y105649D01*
X96361Y104262D01*
X97044Y102985D01*
X97963Y101865D01*
X99083Y100945D01*
X100361Y100262D01*
X101747Y99842D01*
X103189Y99700D01*
X104631Y99842D01*
X106018Y100262D01*
X107295Y100945D01*
X108415Y101865D01*
X109335Y102985D01*
X110018Y104262D01*
X110438Y105649D01*
X110507Y106343D01*
X111298Y106461D01*
X111670Y105562D01*
X112281Y104766D01*
X113078Y104155D01*
X114005Y103771D01*
X114234Y103741D01*
X114386Y103639D01*
X115000Y103517D01*
X115615Y103639D01*
X115767Y103741D01*
X115995Y103771D01*
X116923Y104155D01*
X117719Y104766D01*
X118330Y105562D01*
X118714Y106490D01*
X118845Y107485D01*
X118714Y108480D01*
X118330Y109407D01*
X117719Y110204D01*
X116923Y110815D01*
X115995Y111199D01*
X115767Y111229D01*
X115615Y111330D01*
X115000Y111453D01*
X114386Y111330D01*
X114234Y111229D01*
X114005Y111199D01*
X113078Y110815D01*
X112281Y110204D01*
X111670Y109407D01*
X111286Y108480D01*
X111261Y108289D01*
X110461Y108302D01*
X110438Y108533D01*
X110018Y109919D01*
X109335Y111197D01*
X108415Y112317D01*
X107295Y113236D01*
X106018Y113919D01*
X104631Y114340D01*
X103189Y114482D01*
D02*
G37*
G36*
X133200Y85927D02*
X132348Y85757D01*
X131625Y85275D01*
X131142Y84552D01*
X131053Y84105D01*
X102782Y55833D01*
X71337D01*
X70852Y56157D01*
X70000Y56327D01*
X69148Y56157D01*
X68425Y55675D01*
X67943Y54952D01*
X67840Y54437D01*
X67175Y53992D01*
X67000Y54027D01*
X66148Y53857D01*
X65425Y53375D01*
X64943Y52652D01*
X64773Y51800D01*
X64943Y50948D01*
X65425Y50225D01*
X66148Y49742D01*
X67000Y49573D01*
X67852Y49742D01*
X68338Y50067D01*
X103746D01*
X104409Y50199D01*
X104971Y50574D01*
X131464Y77067D01*
X131862D01*
X132348Y76743D01*
X133200Y76573D01*
X134052Y76743D01*
X134775Y77225D01*
X135257Y77948D01*
X135427Y78800D01*
X135257Y79652D01*
X134775Y80375D01*
X134052Y80857D01*
X133200Y81027D01*
X133088Y81237D01*
X133355Y81504D01*
X134052Y81643D01*
X134775Y82125D01*
X135257Y82848D01*
X135427Y83700D01*
X135257Y84552D01*
X134775Y85275D01*
X134052Y85757D01*
X133200Y85927D01*
D02*
G37*
G36*
X27063Y64890D02*
X26211Y64720D01*
X25488Y64238D01*
X25005Y63515D01*
X24836Y62663D01*
X25005Y61811D01*
X25488Y61088D01*
X26211Y60605D01*
X26601Y60528D01*
Y59728D01*
X26248Y59658D01*
X25525Y59175D01*
X25043Y58452D01*
X24873Y57600D01*
X25043Y56748D01*
X25525Y56025D01*
X26248Y55542D01*
X26461Y55500D01*
Y54700D01*
X26248Y54658D01*
X25525Y54175D01*
X25043Y53452D01*
X24873Y52600D01*
X25043Y51748D01*
X25525Y51025D01*
X26248Y50542D01*
X27100Y50373D01*
X27952Y50542D01*
X28590Y50969D01*
X43610D01*
X44248Y50542D01*
X45100Y50373D01*
X45952Y50542D01*
X46675Y51025D01*
X47157Y51748D01*
X47327Y52600D01*
X47157Y53452D01*
X46675Y54175D01*
X45952Y54658D01*
X45100Y54827D01*
X44905Y54788D01*
X44461Y55453D01*
X44657Y55748D01*
X44827Y56600D01*
X44657Y57452D01*
X44175Y58175D01*
X43452Y58657D01*
X43185Y58711D01*
X41543Y60353D01*
X41013Y60707D01*
X40389Y60831D01*
X31201D01*
X29270Y62763D01*
X29120Y63515D01*
X28638Y64238D01*
X27915Y64720D01*
X27063Y64890D01*
D02*
G37*
%LPD*%
D31*
X27100Y52600D02*
X45100D01*
X80100Y29500D02*
Y29700D01*
Y29500D02*
Y34400D01*
X83000Y29400D02*
Y34400D01*
X91300Y24900D02*
Y30000D01*
X27063Y62663D02*
X30526Y59200D01*
X40389D01*
X42600Y56989D01*
Y56600D02*
Y56989D01*
X34700Y56700D02*
X39800D01*
X27100Y57600D02*
X33800D01*
X34700Y56700D01*
D32*
X70000Y54100D02*
X103500D01*
X133100Y83700D01*
X133200D01*
X130746Y78800D02*
X133200D01*
X67000Y51800D02*
X103746D01*
X130746Y78800D01*
D35*
X130000Y24000D02*
D03*
D36*
X150000D02*
D03*
X140000Y14000D02*
D03*
D37*
X77500Y6200D02*
D03*
D38*
X87500D02*
D03*
X97500D02*
D03*
X107500D02*
D03*
D39*
X83000Y29400D02*
D03*
X27100Y57600D02*
D03*
Y52600D02*
D03*
X27063Y62663D02*
D03*
X67000Y51800D02*
D03*
X70000Y54100D02*
D03*
X133200Y83700D02*
D03*
Y78800D02*
D03*
X45100Y52600D02*
D03*
X91300Y30000D02*
D03*
X83000Y34400D02*
D03*
X80100D02*
D03*
Y29500D02*
D03*
X91300Y24900D02*
D03*
X39800Y56700D02*
D03*
X42600Y56600D02*
D03*
X11811Y78740D02*
D03*
X19685D02*
D03*
X27559D02*
D03*
Y86614D02*
D03*
Y94488D02*
D03*
X41339Y78740D02*
D03*
Y86614D02*
D03*
Y94488D02*
D03*
X55118D02*
D03*
Y86614D02*
D03*
X65945Y76772D02*
D03*
X62992Y73819D02*
D03*
X65945D02*
D03*
X62992Y76772D02*
D03*
X68898Y73819D02*
D03*
X71850D02*
D03*
X65945Y70866D02*
D03*
X62992D02*
D03*
X45276Y67913D02*
D03*
X51181D02*
D03*
X57087D02*
D03*
Y72835D02*
D03*
X51181D02*
D03*
X57087Y77756D02*
D03*
X78740Y88583D02*
D03*
X74803D02*
D03*
X87402D02*
D03*
X67700Y96600D02*
D03*
X82400Y96400D02*
D03*
X100300Y98900D02*
D03*
X96457Y114173D02*
D03*
Y124016D02*
D03*
Y119095D02*
D03*
X103347Y124016D02*
D03*
X109252D02*
D03*
X115157D02*
D03*
X103347Y119095D02*
D03*
X109252D02*
D03*
X115157D02*
D03*
X109252Y114173D02*
D03*
X115157D02*
D03*
X121063Y143701D02*
D03*
X128937D02*
D03*
X136811D02*
D03*
X144685D02*
D03*
X152559D02*
D03*
X160433D02*
D03*
X169291D02*
D03*
X177165D02*
D03*
Y136811D02*
D03*
Y129921D02*
D03*
Y123031D02*
D03*
X160433Y136811D02*
D03*
Y129921D02*
D03*
Y123031D02*
D03*
X146653Y139764D02*
D03*
Y131890D02*
D03*
Y124016D02*
D03*
Y117126D02*
D03*
Y110236D02*
D03*
X149606Y107283D02*
D03*
X153543D02*
D03*
X157480D02*
D03*
X177165Y98425D02*
D03*
Y89567D02*
D03*
Y81693D02*
D03*
Y72835D02*
D03*
Y64961D02*
D03*
Y55118D02*
D03*
Y46260D02*
D03*
X168307D02*
D03*
X160433D02*
D03*
Y39370D02*
D03*
Y32480D02*
D03*
Y24606D02*
D03*
Y17717D02*
D03*
X170276D02*
D03*
Y10827D02*
D03*
Y3937D02*
D03*
X160433D02*
D03*
Y10827D02*
D03*
X140748Y101378D02*
D03*
Y98425D02*
D03*
X143701Y101378D02*
D03*
Y98425D02*
D03*
X144685Y94488D02*
D03*
X147638D02*
D03*
X144685Y91535D02*
D03*
X147638D02*
D03*
X27165Y47638D02*
D03*
X7874Y64961D02*
D03*
X11811D02*
D03*
X7874Y61024D02*
D03*
X11811D02*
D03*
X7874Y57087D02*
D03*
X11811D02*
D03*
X7874Y53150D02*
D03*
X11811D02*
D03*
Y49213D02*
D03*
X15748D02*
D03*
X3937Y43307D02*
D03*
Y35433D02*
D03*
Y27559D02*
D03*
Y19685D02*
D03*
Y11811D02*
D03*
Y3937D02*
D03*
X11811Y19685D02*
D03*
Y11811D02*
D03*
Y3937D02*
D03*
X19685D02*
D03*
X27559D02*
D03*
X35433D02*
D03*
X27559Y27559D02*
D03*
X35433D02*
D03*
X27559Y35433D02*
D03*
X35433D02*
D03*
X45276Y23622D02*
D03*
X53150D02*
D03*
X45276Y15748D02*
D03*
X53150D02*
D03*
X74200Y31000D02*
D03*
X59400Y4400D02*
D03*
X93800Y17900D02*
D03*
X105200Y17800D02*
D03*
X114173Y21654D02*
D03*
X118110D02*
D03*
X114173Y17717D02*
D03*
X118110D02*
D03*
X124016Y25591D02*
D03*
Y21654D02*
D03*
Y17717D02*
D03*
Y29528D02*
D03*
X116300Y53000D02*
D03*
X109500Y40400D02*
D03*
X141200Y59600D02*
D03*
X141300Y52500D02*
D03*
X144400D02*
D03*
X141200Y49500D02*
D03*
X144400Y49400D02*
D03*
X129921Y39370D02*
D03*
X137795D02*
D03*
X145669D02*
D03*
X153543D02*
D03*
X115157Y2953D02*
D03*
X119095D02*
D03*
X132874D02*
D03*
X115157Y6890D02*
D03*
X119095D02*
D03*
X137795Y2953D02*
D03*
X142717D02*
D03*
X147638D02*
D03*
X160433Y116142D02*
D03*
Y109252D02*
D03*
Y101378D02*
D03*
Y93504D02*
D03*
Y86614D02*
D03*
Y78740D02*
D03*
Y69882D02*
D03*
Y61024D02*
D03*
Y54134D02*
D03*
X146653Y86614D02*
D03*
Y78740D02*
D03*
X140748Y70866D02*
D03*
X134843D02*
D03*
X13780Y94488D02*
D03*
Y86614D02*
D03*
X69900Y31000D02*
D03*
X73200Y15800D02*
D03*
X104600Y26000D02*
D03*
X94000Y49200D02*
D03*
X91100D02*
D03*
X65600Y55800D02*
D03*
X56700D02*
D03*
X48600Y55700D02*
D03*
X113000Y56000D02*
D03*
X144300Y59600D02*
D03*
X95400Y92200D02*
D03*
X97300Y98900D02*
D03*
X94500D02*
D03*
M02*
